<svg width="48" height="38" fill="none" xmlns="http://www.w3.org/2000/svg"><path d="M27.915 21.87h-8.003a.218.218 0 0 0-.2.126l-7.524 15.053c-.056.134.048.276.2.268h23.035c.151 0 .247-.149.2-.276l-7.524-15.053c-.024-.067-.104-.119-.184-.119ZM12.292 33.03l6.526-12.957a.172.172 0 0 0 .008-.127l-9.441-18.9C9.32.824 8.97.854 8.97 1.092l2.923 31.864c-.016.21.311.276.4.075Z" fill="#ECECEC"/><path d="M.591 12.595 6.75.085c.128-.164.392-.074.384.127l3.242 34.622c-.008.209-.32.268-.407.074L.232 15.391a2.732 2.732 0 0 1 .36-2.796Z" fill="#E0E0E0"/><path d="m35.934 32.955 2.923-31.864c0-.23-.351-.268-.415-.044l-9.44 18.899a.172.172 0 0 0 .007.127l6.526 12.957c.088.201.415.134.399-.075Z" fill="#ECECEC"/><path d="m47.587 15.39-9.736 19.518c-.088.202-.4.142-.407-.074L40.686.21c-.008-.201.256-.283.384-.127l6.166 12.51a2.73 2.73 0 0 1 .351 2.796Z" fill="#E0E0E0"/></svg>