<svg width="48" height="38" viewBox="0 0 48 38" fill="none" xmlns="http://www.w3.org/2000/svg">
<path d="M27.9149 21.8691H19.9118C19.824 21.8691 19.7441 21.9213 19.7122 21.9959L12.1883 37.0487C12.1324 37.1829 12.2362 37.3246 12.388 37.3171H35.4228C35.5745 37.3171 35.6704 37.168 35.6224 37.0412L28.0986 21.9884C28.0746 21.9213 27.9948 21.8691 27.9149 21.8691Z" fill="#ECECEC"/>
<path d="M12.2922 33.0299L18.8177 20.0726C18.8336 20.0353 18.8416 19.9906 18.8256 19.9458L9.38487 1.04663C9.32098 0.822966 8.96954 0.852788 8.96954 1.09136L11.8928 32.9553C11.8769 33.1641 12.2043 33.2312 12.2922 33.0299Z" fill="#ECECEC"/>
<path d="M0.591141 12.5951L6.74919 0.0851929C6.87699 -0.078822 7.14056 0.0106405 7.13257 0.211931L10.3753 34.834C10.3673 35.0427 10.0559 35.1024 9.96799 34.9085L0.231722 15.3908C-0.17562 14.4663 -0.0398394 13.4077 0.591141 12.5951Z" fill="#E0E0E0"/>
<path d="M35.934 32.9553L38.8573 1.09126C38.8573 0.860145 38.5058 0.822868 38.4419 1.04653L29.0012 19.9458C28.9852 19.9905 28.9932 20.0352 29.0092 20.0725L35.5346 33.0299C35.6225 33.2312 35.95 33.1641 35.934 32.9553Z" fill="#ECECEC"/>
<path d="M47.5872 15.3903L37.8509 34.9085C37.7631 35.1098 37.4516 35.0501 37.4436 34.8339L40.6864 0.21108C40.6784 0.00978427 40.942 -0.0722248 41.0697 0.0843384L47.2358 12.5945C47.8668 13.4071 47.9946 14.4658 47.5872 15.3903Z" fill="#E0E0E0"/>
</svg>
